<svg width="156" height="52" viewBox="0 0 156 52" fill="none" xmlns="http://www.w3.org/2000/svg">
<rect width="156" height="52" rx="8" fill="#FF6565"/>
<path d="M56.832 20.88C58.016 20.88 59.0507 21.1093 59.936 21.568C60.832 22.016 61.52 22.6667 62 23.52C62.4907 24.3627 62.736 25.3493 62.736 26.48C62.736 27.6107 62.4907 28.592 62 29.424C61.52 30.256 60.832 30.896 59.936 31.344C59.0507 31.7813 58.016 32 56.832 32H53.2V20.88H56.832ZM56.832 30.512C58.1333 30.512 59.1307 30.16 59.824 29.456C60.5173 28.752 60.864 27.76 60.864 26.48C60.864 25.1893 60.5173 24.1813 59.824 23.456C59.1307 22.7307 58.1333 22.368 56.832 22.368H55.024V30.512H56.832ZM72.6238 27.376C72.6238 27.7067 72.6024 28.0053 72.5598 28.272H65.8238C65.8771 28.976 66.1384 29.5413 66.6078 29.968C67.0771 30.3947 67.6531 30.608 68.3358 30.608C69.3171 30.608 70.0104 30.1973 70.4158 29.376H72.3837C72.1171 30.1867 71.6318 30.8533 70.9278 31.376C70.2344 31.888 69.3704 32.144 68.3358 32.144C67.4931 32.144 66.7358 31.9573 66.0638 31.584C65.4024 31.2 64.8798 30.6667 64.4958 29.984C64.1224 29.2907 63.9358 28.4907 63.9358 27.584C63.9358 26.6773 64.1171 25.8827 64.4798 25.2C64.8531 24.5067 65.3704 23.9733 66.0318 23.6C66.7038 23.2267 67.4718 23.04 68.3358 23.04C69.1678 23.04 69.9091 23.2213 70.5598 23.584C71.2104 23.9467 71.7171 24.4587 72.0798 25.12C72.4424 25.7707 72.6238 26.5227 72.6238 27.376ZM70.7198 26.8C70.7091 26.128 70.4691 25.5893 69.9998 25.184C69.5304 24.7787 68.9491 24.576 68.2558 24.576C67.6264 24.576 67.0878 24.7787 66.6398 25.184C66.1918 25.5787 65.9251 26.1173 65.8398 26.8H70.7198ZM76.2428 20.16V32H74.4188V20.16H76.2428ZM86.7175 27.376C86.7175 27.7067 86.6962 28.0053 86.6535 28.272H79.9175C79.9708 28.976 80.2322 29.5413 80.7015 29.968C81.1708 30.3947 81.7468 30.608 82.4295 30.608C83.4108 30.608 84.1042 30.1973 84.5095 29.376H86.4775C86.2108 30.1867 85.7255 30.8533 85.0215 31.376C84.3282 31.888 83.4642 32.144 82.4295 32.144C81.5868 32.144 80.8295 31.9573 80.1575 31.584C79.4962 31.2 78.9735 30.6667 78.5895 29.984C78.2162 29.2907 78.0295 28.4907 78.0295 27.584C78.0295 26.6773 78.2108 25.8827 78.5735 25.2C78.9468 24.5067 79.4642 23.9733 80.1255 23.6C80.7975 23.2267 81.5655 23.04 82.4295 23.04C83.2615 23.04 84.0028 23.2213 84.6535 23.584C85.3042 23.9467 85.8108 24.4587 86.1735 25.12C86.5362 25.7707 86.7175 26.5227 86.7175 27.376ZM84.8135 26.8C84.8028 26.128 84.5628 25.5893 84.0935 25.184C83.6242 24.7787 83.0428 24.576 82.3495 24.576C81.7202 24.576 81.1815 24.7787 80.7335 25.184C80.2855 25.5787 80.0188 26.1173 79.9335 26.8H84.8135ZM90.6405 24.672V29.552C90.6405 29.8827 90.7152 30.1227 90.8645 30.272C91.0245 30.4107 91.2912 30.48 91.6645 30.48H92.7845V32H91.3445C90.5232 32 89.8938 31.808 89.4565 31.424C89.0192 31.04 88.8005 30.416 88.8005 29.552V24.672H87.7605V23.184H88.8005V20.992H90.6405V23.184H92.7845V24.672H90.6405ZM102.546 27.376C102.546 27.7067 102.524 28.0053 102.482 28.272H95.7456C95.799 28.976 96.0603 29.5413 96.5296 29.968C96.999 30.3947 97.575 30.608 98.2576 30.608C99.239 30.608 99.9323 30.1973 100.338 29.376H102.306C102.039 30.1867 101.554 30.8533 100.85 31.376C100.156 31.888 99.2923 32.144 98.2576 32.144C97.415 32.144 96.6576 31.9573 95.9856 31.584C95.3243 31.2 94.8016 30.6667 94.4176 29.984C94.0443 29.2907 93.8576 28.4907 93.8576 27.584C93.8576 26.6773 94.039 25.8827 94.4016 25.2C94.775 24.5067 95.2923 23.9733 95.9536 23.6C96.6256 23.2267 97.3936 23.04 98.2576 23.04C99.0896 23.04 99.831 23.2213 100.482 23.584C101.132 23.9467 101.639 24.4587 102.002 25.12C102.364 25.7707 102.546 26.5227 102.546 27.376ZM100.642 26.8C100.631 26.128 100.391 25.5893 99.9216 25.184C99.4523 24.7787 98.871 24.576 98.1776 24.576C97.5483 24.576 97.0096 24.7787 96.5616 25.184C96.1136 25.5787 95.847 26.1173 95.7616 26.8H100.642Z" fill="#212121"/>
</svg>
